HIERARCHY
ROOT Joint1
{
	OFFSET 0.000000 0.000000 0.000000
	CHANNELS 6 Xposition Yposition Zposition Xrotation Yrotation Zrotation
	JOINT Joint2
	{
		OFFSET -0.000000 0.000000 1.456275
		CHANNELS 6 Xposition Yposition Zposition Xrotation Yrotation Zrotation
		JOINT Joint3
		{
			OFFSET -0.000000 0.000002 1.471446
			CHANNELS 6 Xposition Yposition Zposition Xrotation Yrotation Zrotation
			JOINT Joint4
			{
				OFFSET 0.625745 0.000000 0.917755
				CHANNELS 6 Xposition Yposition Zposition Xrotation Yrotation Zrotation
				JOINT Joint5
				{
					OFFSET -0.629534 0.000001 0.940221
					CHANNELS 6 Xposition Yposition Zposition Xrotation Yrotation Zrotation
					JOINT Joint6
					{
						OFFSET -0.000001 0.113772 1.960660
						CHANNELS 6 Xposition Yposition Zposition Xrotation Yrotation Zrotation
						JOINT Joint7
						{
							OFFSET -0.669733 -0.113771 0.388340
							CHANNELS 6 Xposition Yposition Zposition Xrotation Yrotation Zrotation
							End Site
							{
								OFFSET 0.005509 0.005509 0.438980
							}
						}
					}
				}
			}
		}
	}
}
MOTION
Frames: 17
Frame Time: 0.041667
0.000000 0.000000 0.000000 -0.000000 1.019410 -0.087111 -0.000000 -0.000000 1.456275 0.000000 -44.978015 0.000000 -0.000000 0.000002 1.471446 0.000000 -1.133456 -0.097092 0.625745 0.000000 0.917755 0.000004 135.002514 -0.000001 -0.629534 0.000001 0.940221 0.000000 1.709736 0.012987 -0.000001 0.113772 1.960661 -88.297994 90.032576 0.003610 -0.669733 -0.113771 0.388340 -0.705476 3.566198 134.981286 
0.000000 0.000000 0.000000 -0.000000 1.019410 -0.311768 -0.000000 0.000000 1.456275 0.000000 -44.964170 0.000000 -0.000000 0.000002 1.471446 0.000000 -1.133461 -0.283539 0.625745 0.000000 0.917755 0.000004 134.946096 -0.000001 -0.629534 0.000001 0.940221 0.000000 1.709736 0.097968 -0.000001 0.113772 1.960660 -88.302912 90.197074 0.000590 -0.669733 -0.113771 0.388340 -0.705905 3.566198 135.005464 
0.000000 0.000000 0.000000 -0.000000 1.019410 -0.667424 -0.000000 -0.000000 1.456275 -0.000000 -44.942242 0.000000 -0.000000 0.000002 1.471445 0.000000 -1.133462 -0.578707 0.625745 0.000000 0.917755 0.000003 134.856785 -0.000001 -0.629534 0.000001 0.940221 0.000000 1.709736 0.232504 -0.000001 0.113772 1.960660 -88.303479 90.457482 0.000271 -0.669733 -0.113771 0.388340 -0.706585 3.566197 135.043741 
0.000000 0.000000 0.000000 -0.000000 1.019410 -1.138721 -0.000000 0.000000 1.456275 0.000000 -44.913183 -0.000000 -0.000000 0.000002 1.471446 0.000000 -1.133464 -0.969847 0.625745 0.000000 0.917755 0.000004 134.738418 -0.000001 -0.629533 0.000001 0.940221 -0.000000 1.709737 0.410783 -0.000000 0.113772 1.960660 -88.303657 90.802570 0.000157 -0.669733 -0.113771 0.388340 -0.707486 3.566197 135.094462 
0.000000 0.000000 0.000000 -0.000000 1.019410 -1.710301 -0.000000 0.000000 1.456275 -0.000000 -44.877942 0.000000 -0.000000 0.000002 1.471446 -0.000000 -1.133460 -1.444215 0.625744 0.000000 0.917755 0.000003 134.594861 -0.000000 -0.629534 0.000001 0.940221 -0.000000 1.709736 0.626997 -0.000001 0.113772 1.960661 -88.303732 91.221083 0.000100 -0.669733 -0.113771 0.388339 -0.708579 3.566194 135.156002 
0.000000 0.000000 0.000000 -0.000000 1.019410 -2.366806 -0.000000 0.000000 1.456275 0.000000 -44.837463 0.000000 -0.000000 0.000002 1.471446 0.000000 -1.133461 -1.989063 0.625744 0.000000 0.917755 0.000003 134.429994 -0.000001 -0.629534 0.000001 0.940221 -0.000001 1.709736 0.875336 -0.000001 0.113772 1.960660 -88.303773 91.701785 0.000074 -0.669733 -0.113771 0.388339 -0.709834 3.566190 135.226653 
0.000000 0.000000 0.000000 -0.000000 1.019410 -3.092876 -0.000000 0.000000 1.456275 0.000000 -44.792698 -0.000000 -0.000000 0.000002 1.471446 0.000000 -1.133460 -2.591646 0.625744 0.000000 0.917755 0.000004 134.247655 -0.000002 -0.629533 0.000001 0.940220 -0.000000 1.709736 1.149990 -0.000001 0.113772 1.960660 -88.303800 92.233420 0.000057 -0.669733 -0.113771 0.388340 -0.711222 3.566184 135.304804 
0.000000 0.000000 0.000000 -0.000000 1.019410 -3.873155 -0.000000 -0.000000 1.456275 -0.000000 -44.744590 0.000001 -0.000000 0.000002 1.471446 -0.000000 -1.133458 -3.239217 0.625745 0.000000 0.917755 0.000003 134.051683 -0.000000 -0.629534 0.000001 0.940221 -0.000001 1.709737 1.445149 -0.000001 0.113772 1.960660 -88.303814 92.804751 0.000048 -0.669733 -0.113771 0.388340 -0.712714 3.566174 135.388802 
0.000000 0.000000 0.000000 -0.000000 1.019410 -4.692281 -0.000000 -0.000000 1.456275 0.000000 -44.694084 -0.000000 -0.000000 0.000002 1.471446 0.000000 -1.133461 -3.919030 0.625744 0.000000 0.917755 0.000005 133.845972 -0.000001 -0.629533 0.000001 0.940221 0.000001 1.709736 1.755003 -0.000001 0.113772 1.960660 -88.303827 93.404517 0.000036 -0.669733 -0.113771 0.388340 -0.714280 3.566162 135.476966 
0.000000 0.000000 0.000000 -0.000000 1.019410 -5.534899 -0.000000 0.000000 1.456275 0.000000 -44.642130 0.000001 -0.000000 0.000002 1.471446 -0.000001 -1.133462 -4.618337 0.625745 0.000000 0.917755 0.000004 133.634345 -0.000001 -0.629534 0.000001 0.940221 -0.000001 1.709736 2.073744 -0.000001 0.113772 1.960661 -88.303834 94.021495 0.000031 -0.669733 -0.113771 0.388339 -0.715891 3.566148 135.567671 
0.000000 0.000000 0.000000 -0.000000 1.019410 -6.397634 -0.000000 -0.000000 1.456275 0.000000 -44.588943 -0.000000 -0.000001 0.000002 1.471446 0.000000 -1.133462 -5.334341 0.625745 0.000000 0.917755 0.000005 133.417678 0.000001 -0.629534 0.000001 0.940221 -0.000001 1.709737 2.400095 -0.000001 0.113772 1.960660 -88.303841 94.653192 0.000027 -0.669733 -0.113771 0.388339 -0.717541 3.566131 135.660548 
0.000000 0.000000 0.000000 -0.000000 1.019410 -7.325057 -0.000000 0.000000 1.456275 0.000001 -44.531764 -0.000001 -0.000000 0.000002 1.471445 -0.000000 -1.133459 -6.104031 0.625744 0.000000 0.917755 0.000003 133.184768 0.000000 -0.629533 0.000001 0.940221 -0.000001 1.709736 2.750914 -0.000001 0.113772 1.960661 -88.303848 95.332263 0.000022 -0.669733 -0.113771 0.388339 -0.719314 3.566108 135.760392 
0.000000 0.000000 0.000000 -0.000000 1.019410 -8.373719 -0.000000 -0.000000 1.456275 -0.000001 -44.467103 -0.000000 -0.000000 0.000002 1.471446 -0.000000 -1.133460 -6.974339 0.625744 0.000000 0.917755 0.000002 132.921383 0.000001 -0.629534 0.000001 0.940221 -0.000000 1.709736 3.147597 -0.000001 0.113772 1.960661 -88.303855 96.100113 0.000020 -0.669733 -0.113771 0.388340 -0.721319 3.566080 135.873254 
0.000000 0.000000 0.000000 -0.000000 1.019410 -9.600178 -0.000000 0.000000 1.456275 -0.000001 -44.391486 -0.000001 -0.000000 0.000002 1.471446 -0.000000 -1.133465 -7.992206 0.625745 0.000000 0.917755 0.000003 132.613368 0.000001 -0.629533 0.000001 0.940221 -0.000002 1.709737 3.611534 -0.000001 0.113772 1.960660 -88.303855 96.998139 0.000016 -0.669733 -0.113771 0.388339 -0.723663 3.566042 136.005281 
0.000000 0.000000 0.000000 -0.000000 1.019410 -11.060984 -0.000000 0.000000 1.456275 0.000001 -44.301423 0.000001 -0.000000 0.000002 1.471446 0.000000 -1.133462 -9.204562 0.625744 0.000000 0.917755 0.000004 132.246492 -0.000000 -0.629534 0.000001 0.940221 -0.000001 1.709737 4.164120 -0.000001 0.113772 1.960660 -88.303862 98.067754 0.000013 -0.669733 -0.113771 0.388340 -0.726456 3.565989 136.162526 
0.000000 0.000000 0.000000 -0.000000 1.019410 -12.782031 -0.000000 -0.000000 1.456275 -0.000000 -44.195309 0.000001 -0.000000 0.000002 1.471446 0.000000 -1.133460 -10.632899 0.625745 0.000000 0.917755 0.000005 131.814250 0.000000 -0.629534 0.000001 0.940221 -0.000001 1.709737 4.815148 -0.000001 0.113772 1.960660 -88.303862 99.327924 0.000009 -0.669733 -0.113771 0.388339 -0.729746 3.565917 136.347774 
0.000000 0.000000 0.000000 -0.000000 1.019410 -14.666542 -0.000000 0.000000 1.456275 0.000001 -44.079121 0.000000 -0.000000 0.000002 1.471446 0.000000 -1.133462 -12.196898 0.625744 0.000000 0.917755 0.000002 131.340972 0.000001 -0.629533 0.000001 0.940221 -0.000002 1.709737 5.528007 -0.000001 0.113772 1.960660 -88.303862 100.707779 0.000009 -0.669733 -0.113771 0.388340 -0.733347 3.565826 136.550617 
